<?xml version="1.0" encoding="utf-8"?>
<!-- Generator: Adobe Illustrator 16.0.0, SVG Export Plug-In . SVG Version: 6.00 Build 0)  -->
<!DOCTYPE svg PUBLIC "-//W3C//DTD SVG 1.1//EN" "http://www.w3.org/Graphics/SVG/1.1/DTD/svg11.dtd">
<svg version="1.1" id="Layer_1" xmlns="http://www.w3.org/2000/svg" xmlns:xlink="http://www.w3.org/1999/xlink" x="0px" y="0px"
	 width="500px" height="500px" viewBox="0 0 500 500" enable-background="new 0 0 500 500" xml:space="preserve">
<g>
	<g>
		<circle fill="#00B0FF" cx="40.518" cy="217.839" r="11.696"/>
	</g>
	<g>
		<path fill="#00B0FF" d="M70.097,171.421c0,9.875-8.007,17.885-17.883,17.885c-9.88,0-17.884-8.009-17.884-17.885
			c0-9.877,8.004-17.886,17.884-17.886C62.09,153.535,70.097,161.544,70.097,171.421z"/>
	</g>
	<g id="XMLID_37_">
		<g>
			<path fill="#FF9100" d="M455.247,293.512l16.092,13.329c-3.598,11.399-8.089,22.368-13.386,32.875h-21.763
				C444.365,325.322,450.813,309.834,455.247,293.512z"/>
			<path fill="#FF9100" d="M271.497,441.594v0.029l-5.527,19.374c-1.728,0.058-3.426,0.086-5.153,0.086
				c-12.637,0-25.016-1.065-37.078-3.109l-6.103-20.727c13.904,3.022,28.355,4.635,43.181,4.635
				C264.416,441.882,267.957,441.795,271.497,441.594z"/>
			<path fill="#FF9100" d="M74.909,318.269h-20.64c-4.635-12.177-8.176-24.901-10.565-38.028l17.128-14.94
				C63.106,283.839,67.914,301.63,74.909,318.269z"/>
		</g>
	</g>
	<g id="XMLID_36_">
		<g>
			<path fill="#FF9100" d="M414.167,75.765l-7.945,20.353c-10.594-10.651-22.31-20.151-35.005-28.298l17.992-12.177
				C398.017,61.746,406.337,68.482,414.167,75.765z"/>
			<path fill="#FF9100" d="M150.245,44.416l15.804,14.336c-14.221,7.427-27.434,16.466-39.438,26.916l-0.029-0.029l-7.226-20.18
				C129,57.6,139.335,50.576,150.245,44.416z"/>
		</g>
	</g>
</g>
</svg>
